<?xml version="1.0" standalone="no"?><!DOCTYPE svg PUBLIC "-//W3C//DTD SVG 1.1//EN" "http://www.w3.org/Graphics/SVG/1.1/DTD/svg11.dtd"><svg class="icon" width="25px" height="25px" viewBox="0 0 1024 1024" version="1.1" xmlns="http://www.w3.org/2000/svg"><path fill="#333333" d="M645.3 474v77.1c0 2.8-1 5.6-2.9 8.1s-4.2 4.2-6.7 4.3l-64.6 10c-3.1 9.7-7.5 20.3-13.3 31.7 9.5 13.3 21.9 29.2 37.5 47.9 1.9 3.1 2.9 5.8 2.9 8.3 0 3.3-1 5.9-2.9 7.8-6.4 8.3-17.9 20.8-34.4 37.3-16.6 16.6-27.5 24.8-32.6 24.8-3.1 0-5.9-1-8.8-2.9L471.6 691c-10.2 5.3-20.9 9.6-32.1 12.8-3.1 30-6.2 51.5-9.6 64.6-1.9 6.7-6.1 10-12.5 10H340c-3.1 0-5.8-1.1-8.3-3.2-2.5-2.1-3.9-4.4-4.2-7.3l-9.6-63.7c-9.5-2.8-19.9-7.1-31.3-12.8l-49.3 37.1c-1.9 1.9-4.7 2.9-8.3 2.9-3.1 0-5.9-1.1-8.8-3.3-40-37-60-59.1-60-66.7 0-2.5 1-5.2 2.9-7.8 2.8-3.9 8.5-11.2 17.1-22.1 8.6-10.8 15.2-19.2 19.5-25.5-6.4-12.2-11.2-23.5-14.5-34.2l-63.3-10c-2.8-0.3-5.2-1.5-7.1-4-1.9-2.4-2.9-5.1-2.9-8.1v-77.1c0-2.8 1-5.6 2.9-8.1 1.9-2.6 4.2-4.2 6.7-4.3l64.6-10c3.1-9.7 7.5-20.3 13.3-31.7-9.5-13.3-21.9-29.2-37.5-47.9-1.9-3.1-2.9-5.8-2.9-8.3 0-3.3 1-6.1 2.9-8.3 6.1-8.3 17.5-20.8 34.2-37.1s27.6-24.6 32.9-24.6c3.1 0 5.9 1 8.8 2.9l47.9 37.5c9.5-5 20.2-9.5 32.1-13.3 3.1-30 6.2-51.3 9.6-64.1 1.9-6.7 6.1-10 12.5-10h77.5c3.1 0 5.8 1.1 8.3 3.2 2.5 2.1 3.9 4.5 4.2 7.3l9.6 63.7c9.5 2.8 19.9 7.1 31.3 12.8l49.2-37.1c2.2-1.9 5-2.9 8.3-2.9 3.1 0 5.9 1.1 8.8 3.3 40 37 60 59.1 60 66.7 0 2.2-1 4.8-2.9 7.8-3.3 4.4-9.2 12-17.5 22.5s-14.5 18.9-18.8 25c6.4 13.3 11.1 24.7 14.2 34.2l63.3 9.6c2.8 0.6 5.2 2 7.1 4.3 1.7 2.5 2.8 5.2 2.8 8.3zM454 587.3c20.9-20.9 31.3-45.9 31.3-75.5s-10.5-54.5-31.3-75.5c-20.9-20.9-45.9-31.3-75.5-31.3S324 415.4 303 436.3c-20.9 20.9-31.3 45.9-31.3 75.5s10.4 54.5 31.3 75.5c20.9 20.9 45.9 31.3 75.5 31.3s54.7-10.5 75.5-31.3z m458-317.9v58.4c0 4.4-20.8 8.8-62.1 12.8-3.3 7.5-7.5 14.7-12.5 21.6 14.2 31.4 21.1 50.6 21.1 57.5 0 1.1-0.6 2.1-1.6 2.9-34 19.7-51 29.6-51.7 29.6-2.2 0-8.6-6.5-19.1-19.5-10.5-13-17.8-22.5-21.6-28.3-5.6 0.6-9.7 0.9-12.5 0.9-2.9 0-6.9-0.3-12.5-0.9-3.9 5.8-11.1 15.2-21.6 28.3-10.5 13.1-16.9 19.5-19.1 19.5-0.6 0-17.8-9.8-51.7-29.6-1.1-0.9-1.6-1.8-1.6-2.9 0-6.9 7.1-26.1 21.1-57.5-5-6.9-9.2-14.2-12.5-21.6-41.3-4.2-62.1-8.5-62.1-12.8v-58.4c0-4.4 20.8-8.8 62.1-12.8 3.6-8 7.8-15.2 12.5-21.6-14.2-31.4-21.1-50.6-21.1-57.5 0-1.1 0.6-2.1 1.6-2.9 1.1-0.6 5.9-3.3 14.5-8.3s16.8-9.7 24.6-14.2c7.8-4.4 12-6.7 12.5-6.7 2.2 0 8.6 6.5 19.1 19.3s17.8 22.3 21.6 28.1c5.6-0.6 9.7-0.9 12.5-0.9 2.9 0 6.9 0.3 12.5 0.9 14.2-19.7 26.9-35.3 38.3-46.7l2.5-0.9c1.1 0 18.3 9.7 51.7 29.2 1.1 0.9 1.6 1.8 1.6 2.9 0 6.9-7.1 26.1-21.1 57.5 4.7 6.4 8.9 13.6 12.5 21.6 41.3 4.2 62.1 8.6 62.1 13z m0 426.6v58.4c0 4.4-20.8 8.8-62.1 12.8-3.3 7.5-7.5 14.7-12.5 21.6 14.2 31.4 21.1 50.6 21.1 57.5 0 1.1-0.6 2.1-1.6 2.9-34 19.7-51 29.6-51.7 29.6-2.2 0-8.6-6.6-19.1-19.5-10.5-13-17.8-22.5-21.6-28.3-5.6 0.6-9.7 0.9-12.5 0.9-2.9 0-6.9-0.3-12.5-0.9-3.9 5.8-11.1 15.2-21.6 28.3-10.5 13-16.9 19.5-19.1 19.5-0.6 0-17.8-9.9-51.7-29.6-1.1-0.9-1.6-1.8-1.6-2.9 0-6.9 7.1-26.1 21.1-57.5-5-6.9-9.2-14.2-12.5-21.6-41.3-4.2-62.1-8.5-62.1-12.8V696c0-4.4 20.8-8.8 62.1-12.8 3.6-8 7.8-15.2 12.5-21.6-14.2-31.4-21.1-50.6-21.1-57.5 0-1.1 0.6-2.1 1.6-2.9 1.1-0.6 5.9-3.3 14.5-8.3s16.8-9.7 24.6-14.2c7.8-4.4 12-6.7 12.5-6.7 2.2 0 8.6 6.5 19.1 19.3s17.8 22.3 21.6 28.1c5.6-0.6 9.7-0.9 12.5-0.9 2.9 0 6.9 0.3 12.5 0.9 14.2-19.7 26.9-35.3 38.3-46.7l2.5-0.9c1.1 0 18.3 9.7 51.7 29.2 1.1 0.9 1.6 1.8 1.6 2.9 0 6.9-7.1 26.1-21.1 57.5 4.7 6.4 8.9 13.6 12.5 21.6 41.3 4.2 62.1 8.5 62.1 13zM805.3 298.5c0-14.4-5.3-26.9-15.8-37.5-10.5-10.5-23.1-15.8-37.5-15.8s-26.9 5.3-37.5 15.8c-10.5 10.6-15.8 23.1-15.8 37.5 0 14.7 5.2 27.3 15.6 37.6 10.4 10.4 23 15.6 37.6 15.6 14.6 0 27.3-5.2 37.6-15.6 10.4-10.2 15.8-22.9 15.8-37.6z m0 426.7c0-14.4-5.3-26.9-15.8-37.5-10.5-10.5-23.1-15.8-37.5-15.8s-26.9 5.3-37.5 15.8c-10.5 10.5-15.8 23.1-15.8 37.5 0 14.7 5.2 27.3 15.6 37.6 10.4 10.3 23 15.6 37.6 15.6 14.6 0 27.3-5.2 37.6-15.6 10.4-10.3 15.8-23 15.8-37.6z" /></svg>
