<?xml version="1.0" standalone="no"?><!DOCTYPE svg PUBLIC "-//W3C//DTD SVG 1.1//EN" "http://www.w3.org/Graphics/SVG/1.1/DTD/svg11.dtd"><svg t="1546393948795" class="icon" style="" viewBox="0 0 1024 1024" version="1.1" xmlns="http://www.w3.org/2000/svg" p-id="3098" xmlns:xlink="http://www.w3.org/1999/xlink" width="10" height="10"><defs><style type="text/css"></style></defs><path d="M475.9279768 879.57804584c-222.57878737 0-403.65812813-181.07933977-403.65812813-403.65812714 0-222.56972128 181.07933977-403.64906203 403.65812813-403.64906203 222.56166319 0 403.64100295 181.07933977 403.64100295 403.64906203 0 222.57878737-181.07933977 403.65812813-403.64100295 403.65812714z m0-736.951131c-183.77592778 0-333.30106195 149.51707509-333.30106196 333.29300386 0 183.78499387 149.52513417 333.30106195 333.30106196 333.30106196s333.28393777-149.51707509 333.28393776-333.30106196c0-183.77592778-149.50800998-333.29300288-333.28393776-333.29300386z" fill="#444444" p-id="3099"></path><path d="M916.55061073 951.72914333c-9.00037786 0-18.00176273-3.43495097-24.87267267-10.30585992L719.73798566 769.47325691c-13.74181889-13.7327528-13.74181889-36.01158455 0-49.74433735 13.74181889-13.74181889 36.00251845-13.74181889 49.74433734 0l171.94096041 171.9500265c13.74181889 13.7327528 13.74181889 36.01158455 0 49.74433735-6.87090994 6.87090994-15.87128681 10.30586091-24.87267268 10.30585992z" fill="#444444" p-id="3100"></path><path d="M507.48218337 740.60758025c-127.65930286 0-231.76854127-76.52285353-278.50704426-204.68883684l82.62115017-30.12784524C345.62446648 599.12990169 417.02813492 652.66175178 507.48218337 652.66175178v87.94582847z" fill="#00D8A0" p-id="3101"></path></svg>
